<svg xmlns="http://www.w3.org/2000/svg" width="277.131" height="299.996" viewBox="-100 -100 69.283 74.999"><path d="m-65.359-70 8.66 5-8.66 5-8.66-5zm0-15 17.32 10-8.66 5-8.66-5-8.66 5-8.66-5z" style="fill:#bccfec"/><path d="m-65.359-100 25.98 15-8.66 5-17.32-10-17.32 10-8.66-5z" style="fill:#bccfec"/><path d="m-56.698-55-8.66 5v-10l8.66-5z" style="fill:#608ed6"/><path d="m-43.709-47.5-17.32 10v-10l8.66-5v-10l8.66-5z" style="fill:#608ed6"/><path d="m-30.717-40-25.98 15v-10l17.32-10v-20l8.66-5z" style="fill:#608ed6"/><path d="M-74.019-55v-10l8.66 5v10z" style="fill:#83a3d9"/><path d="M-87.009-47.5v-20l8.66 5v10l8.66 5v10z" style="fill:#83a3d9"/><path d="M-100-40v-30l8.66 5v20l17.32 10v10z" style="fill:#83a3d9"/></svg>